<svg width="16" height="17" viewBox="0 0 16 17" fill="none" xmlns="http://www.w3.org/2000/svg">
<path d="M12.6668 3.16634H11.3335V2.49967C11.3335 2.32286 11.2633 2.15329 11.1382 2.02827C11.0132 1.90325 10.8436 1.83301 10.6668 1.83301C10.49 1.83301 10.3204 1.90325 10.1954 2.02827C10.0704 2.15329 10.0002 2.32286 10.0002 2.49967V3.16634H6.00016V2.49967C6.00016 2.32286 5.92992 2.15329 5.8049 2.02827C5.67988 1.90325 5.51031 1.83301 5.3335 1.83301C5.15669 1.83301 4.98712 1.90325 4.86209 2.02827C4.73707 2.15329 4.66683 2.32286 4.66683 2.49967V3.16634H3.3335C2.80306 3.16634 2.29436 3.37705 1.91928 3.75213C1.54421 4.1272 1.3335 4.63591 1.3335 5.16634V13.1663C1.3335 13.6968 1.54421 14.2055 1.91928 14.5806C2.29436 14.9556 2.80306 15.1663 3.3335 15.1663H12.6668C13.1973 15.1663 13.706 14.9556 14.081 14.5806C14.4561 14.2055 14.6668 13.6968 14.6668 13.1663V5.16634C14.6668 4.63591 14.4561 4.1272 14.081 3.75213C13.706 3.37705 13.1973 3.16634 12.6668 3.16634ZM13.3335 13.1663C13.3335 13.3432 13.2633 13.5127 13.1382 13.6377C13.0132 13.7628 12.8436 13.833 12.6668 13.833H3.3335C3.15669 13.833 2.98712 13.7628 2.86209 13.6377C2.73707 13.5127 2.66683 13.3432 2.66683 13.1663V8.49967H13.3335V13.1663ZM13.3335 7.16634H2.66683V5.16634C2.66683 4.98953 2.73707 4.81996 2.86209 4.69494C2.98712 4.56991 3.15669 4.49967 3.3335 4.49967H4.66683V5.16634C4.66683 5.34315 4.73707 5.51272 4.86209 5.63775C4.98712 5.76277 5.15669 5.83301 5.3335 5.83301C5.51031 5.83301 5.67988 5.76277 5.8049 5.63775C5.92992 5.51272 6.00016 5.34315 6.00016 5.16634V4.49967H10.0002V5.16634C10.0002 5.34315 10.0704 5.51272 10.1954 5.63775C10.3204 5.76277 10.49 5.83301 10.6668 5.83301C10.8436 5.83301 11.0132 5.76277 11.1382 5.63775C11.2633 5.51272 11.3335 5.34315 11.3335 5.16634V4.49967H12.6668C12.8436 4.49967 13.0132 4.56991 13.1382 4.69494C13.2633 4.81996 13.3335 4.98953 13.3335 5.16634V7.16634Z" fill="#6C6C6C"/>
</svg>
