<svg width="28" height="22" viewBox="0 0 28 22" fill="none" xmlns="http://www.w3.org/2000/svg">
<path id="Vector" d="M27.343 6.44271H24.0689L23.1589 4.07292C22.2237 1.63647 19.9919 0.0625 17.4725 0.0625H10.5272C8.00825 0.0625 5.7759 1.63647 4.8402 4.07292L3.9302 6.44271H0.656599C0.229489 6.44271 -0.0838709 6.86084 0.0200355 7.29207L0.348161 8.65926C0.420895 8.96346 0.683396 9.17708 0.984724 9.17708H2.0823C1.34785 9.8453 0.874802 10.8166 0.874802 11.9115V14.6458C0.874802 15.5641 1.21168 16.393 1.7498 17.0344V20.1146C1.7498 21.1212 2.53348 21.9375 3.49981 21.9375H5.24981C6.21614 21.9375 6.99981 21.1212 6.99981 20.1146V18.2917H20.9998V20.1146C20.9998 21.1212 21.7835 21.9375 22.7498 21.9375H24.4998C25.4662 21.9375 26.2498 21.1212 26.2498 20.1146V17.0344C26.788 16.3936 27.1248 15.5647 27.1248 14.6458V11.9115C27.1248 10.8166 26.6518 9.8453 25.9179 9.17708H27.0155C27.3168 9.17708 27.5793 8.96346 27.652 8.65926L27.9802 7.29207C28.0835 6.86084 27.7701 6.44271 27.343 6.44271ZM8.08973 5.427C8.48841 4.38908 9.45364 3.70833 10.5272 3.70833H17.4725C18.546 3.70833 19.5112 4.38908 19.9099 5.427L20.9998 8.26562H6.99981L8.08973 5.427ZM5.24981 14.6344C4.19981 14.6344 3.49981 13.9076 3.49981 12.8172C3.49981 11.7269 4.19981 11 5.24981 11C6.29981 11 7.87481 12.6355 7.87481 13.7258C7.87481 14.8162 6.29981 14.6344 5.24981 14.6344ZM22.7498 14.6344C21.6998 14.6344 20.1248 14.8162 20.1248 13.7258C20.1248 12.6355 21.6998 11 22.7498 11C23.7998 11 24.4998 11.7269 24.4998 12.8172C24.4998 13.9076 23.7998 14.6344 22.7498 14.6344V14.6344Z" fill="#71B6F7"/>
</svg>
