<svg width="14" height="15" viewBox="0 0 14 15" fill="none" xmlns="http://www.w3.org/2000/svg">
<path d="M7 13.1C8.48521 13.1 9.90959 12.51 10.9598 11.4598C12.01 10.4096 12.6 8.98521 12.6 7.5C12.6 6.01479 12.01 4.59041 10.9598 3.5402C9.90959 2.49 8.48521 1.9 7 1.9C5.51479 1.9 4.09041 2.49 3.0402 3.5402C1.99 4.59041 1.4 6.01479 1.4 7.5C1.4 8.98521 1.99 10.4096 3.0402 11.4598C4.09041 12.51 5.51479 13.1 7 13.1ZM7 0.5C7.91925 0.5 8.8295 0.68106 9.67878 1.03284C10.5281 1.38463 11.2997 1.90024 11.9497 2.55025C12.5998 3.20026 13.1154 3.97194 13.4672 4.82122C13.8189 5.67049 14 6.58075 14 7.5C14 9.35651 13.2625 11.137 11.9497 12.4497C10.637 13.7625 8.85651 14.5 7 14.5C3.129 14.5 0 11.35 0 7.5C0 5.64348 0.737498 3.86301 2.05025 2.55025C3.36301 1.2375 5.14348 0.5 7 0.5ZM7.35 4V7.675L10.5 9.544L9.975 10.405L6.3 8.2V4H7.35Z" fill="#6C6C6C"/>
</svg>
