<svg width="28" height="20" viewBox="0 0 28 20" fill="none" xmlns="http://www.w3.org/2000/svg">
<path id="Vector" d="M7.7 10C9.62981 10 11.2 8.20083 11.2 5.98958C11.2 3.77834 9.62981 1.97917 7.7 1.97917C5.77019 1.97917 4.2 3.77834 4.2 5.98958C4.2 8.20083 5.77019 10 7.7 10ZM23.1 3.58333H13.3C12.9132 3.58333 12.6 3.94227 12.6 4.38542V11.6042H2.8V1.17708C2.8 0.733932 2.48675 0.375 2.1 0.375H0.7C0.31325 0.375 0 0.733932 0 1.17708V18.8229C0 19.2661 0.31325 19.625 0.7 19.625H2.1C2.48675 19.625 2.8 19.2661 2.8 18.8229V16.4167H25.2V18.8229C25.2 19.2661 25.5133 19.625 25.9 19.625H27.3C27.6868 19.625 28 19.2661 28 18.8229V9.19792C28 6.09686 25.8064 3.58333 23.1 3.58333Z" fill="#3894EA" fill-opacity="0.8"/>
</svg>
