<svg width="18" height="19" viewBox="0 0 18 19" fill="none" xmlns="http://www.w3.org/2000/svg">
<path d="M12.8689 5.63277C12.5764 5.3402 12.4052 4.94801 12.3894 4.53464C12.3736 4.12126 12.5145 3.71716 12.7838 3.40316C12.8061 3.37704 12.8177 3.34347 12.8162 3.30918C12.8148 3.27488 12.8005 3.2424 12.7761 3.21824L11.2246 1.66503C11.199 1.6394 11.1642 1.625 11.128 1.625C11.0917 1.625 11.0569 1.6394 11.0313 1.66503L8.55839 4.13792C8.46715 4.22914 8.39842 4.34036 8.35765 4.46277C8.31703 4.58546 8.24838 4.69699 8.15715 4.78853C8.06592 4.88006 7.95462 4.94908 7.83206 4.99011C7.70958 5.03093 7.59825 5.09965 7.50687 5.19085L1.16503 11.5313C1.1394 11.5569 1.125 11.5917 1.125 11.628C1.125 11.6642 1.1394 11.699 1.16503 11.7246L2.71648 13.2761C2.74064 13.3005 2.77313 13.3148 2.80742 13.3162C2.84172 13.3177 2.87528 13.3061 2.9014 13.2838C3.21533 13.0142 3.61952 12.8731 4.03304 12.8888C4.44656 12.9045 4.8389 13.0758 5.13152 13.3684C5.42413 13.661 5.59543 14.0533 5.61111 14.4669C5.62679 14.8804 5.4857 15.2846 5.21609 15.5985C5.19381 15.6246 5.18223 15.6582 5.18367 15.6925C5.1851 15.7268 5.19944 15.7593 5.22382 15.7834L6.77527 17.3349C6.80091 17.3605 6.83569 17.3749 6.87195 17.3749C6.90821 17.3749 6.94298 17.3605 6.96863 17.3349L13.3108 10.993C13.402 10.9017 13.4707 10.7903 13.5116 10.6678C13.5522 10.5452 13.6208 10.4336 13.7121 10.3421C13.8033 10.2505 13.9146 10.1815 14.0371 10.1405C14.1595 10.0997 14.2708 10.031 14.362 9.93976L16.8349 7.46687C16.8605 7.44122 16.8749 7.40645 16.8749 7.37019C16.8749 7.33393 16.8605 7.29915 16.8349 7.27351L15.2834 5.72206C15.2593 5.69769 15.2268 5.68334 15.1925 5.68191C15.1582 5.68047 15.1246 5.69205 15.0985 5.71433C14.7849 5.98411 14.3811 6.12558 13.9677 6.11046C13.5543 6.09534 13.1619 5.92474 12.8689 5.63277Z" stroke="black" stroke-opacity="0.8" stroke-width="1.125" stroke-miterlimit="10"/>
<path d="M8.8065 5.43688L8.22607 4.85645M10.3541 6.98445L9.96701 6.59773M11.9017 8.53238L11.5149 8.14531M13.6429 10.2733L13.0625 9.69289" stroke="black" stroke-opacity="0.8" stroke-width="1.125" stroke-miterlimit="10" stroke-linecap="round"/>
</svg>
